PathFileType	3	(X/Y/Z)	E:\ViconData\BIOM9541 2025\Week 7\Wed1100\Hanif high squat 2-5 Squat 01.trc
DataRate	CameraRate	NumFrames	NumMarkers	Units	OrigDataRate	OrigDataStartFrame	OrigNumFrames
200.0	200.0	10	19	mm	200.0	1170	1337	
Frame#	Time	C7			CLAV			RBAK			LASI			RASI			LPSI			RPSI			LTHI			LKNE			LTIB			LANK			LHEE			LTOE			RTHI			RKNE			RTIB			RANK			RHEE			RTOE			
		X1	Y1	Z1	X2	Y2	Z2	X3	Y3	Z3	X4	Y4	Z4	X5	Y5	Z5	X6	Y6	Z6	X7	Y7	Z7	X8	Y8	Z8	X9	Y9	Z9	X10	Y10	Z10	X11	Y11	Z11	X12	Y12	Z12	X13	Y13	Z13	X14	Y14	Z14	X15	Y15	Z15	X16	Y16	Z16	X17	Y17	Z17	X18	Y18	Z18	X19	Y19	Z19	
1170	5.845	329.67712	1317.2695	-1207.3378	181.35857	1252.2379	-1197.2444	347.87241	1230.545	-1351.9679	202.15088	877.23364	-1078.7	196.9885	889.7854	-1339.3744	371.4422	940.5649	-1165.9153	371.3716	938.5182	-1240.6339	251.00079	558.12549	-991.302	261.01987	418.83798	-989.1601	293.44952	216.43103	-952.58783	308.92599	63.254574	-959.16193	327.19128	47.137661	-1017.5462	163.23831	37.869179	-927.68976	257.86292	732.83008	-1409.1814	284.32904	421.38916	-1421.553	298.53494	334.48807	-1445.275	305.49667	73.476776	-1444.4373	325.21347	47.808399	-1380.8964	163.15353	40.543682	-1478.8234	
1171	5.85	329.72122	1317.2065	-1207.2993	181.36668	1252.265	-1197.1583	347.91592	1230.5408	-1351.9207	202.10184	877.27435	-1078.606	196.992	889.7034	-1339.3146	371.4347	940.4888	-1166.0597	371.4208	938.6327	-1240.6442	250.93088	558.17773	-991.21649	260.98718	418.87881	-989.14301	293.43924	216.4567	-952.60242	308.63348	63.207001	-959.24078	327.16901	47.080696	-1017.5488	163.24619	37.881714	-927.69061	257.87592	732.71411	-1409.1134	284.47937	421.30502	-1421.4772	298.698	334.38879	-1445.2159	305.55453	73.373764	-1444.4412	325.32138	47.737083	-1381.0447	163.19118	40.476585	-1478.7852	
1172	5.855	329.75583	1317.1621	-1207.2341	181.47054	1252.228	-1197.0851	347.92245	1230.5547	-1351.8876	202.12637	877.28839	-1078.5817	196.9609	889.6777	-1339.2626	371.4035	940.4687	-1166.0074	371.3907	938.6387	-1240.613	250.91847	558.17584	-991.21802	260.9848	418.87427	-989.14508	293.4505	216.44931	-952.58026	308.6398	63.213512	-959.22223	327.14059	47.077053	-1017.5241	163.21188	37.911869	-927.69763	257.89212	732.70837	-1409.0447	284.6095	421.29797	-1421.4379	298.78943	334.38855	-1445.1786	305.56329	73.373604	-1444.4304	325.35422	47.726887	-1381.0493	163.21069	40.506908	-1478.809	
1173	5.86	329.8212	1317.1554	-1207.223	181.51614	1252.2354	-1196.9895	347.86658	1230.4675	-1351.8826	202.11972	877.22931	-1078.5239	196.9295	889.7646	-1339.2136	371.348	940.5587	-1165.7552	371.2645	938.4697	-1240.5295	250.89285	558.12122	-991.18579	260.97739	418.82922	-989.11932	293.47769	216.41287	-952.58252	308.78632	63.472569	-958.97852	327.18008	47.188538	-1017.5157	163.25076	37.892395	-927.66718	257.90335	732.75189	-1408.975	284.72656	421.36414	-1421.3734	298.86526	334.47137	-1445.1453	305.56036	73.475113	-1444.4265	325.3208	47.753632	-1380.8765	163.20168	40.612747	-1478.8065	
1174	5.865	329.86755	1317.1453	-1207.193	181.70114	1252.1262	-1196.9197	347.79724	1230.3319	-1351.8669	202.12428	877.23138	-1078.4683	196.9369	889.7838	-1339.1538	371.2846	940.6285	-1165.3906	371.4672	939.278	-1240.4453	250.84464	558.09003	-991.16388	260.94534	418.84689	-989.07861	293.44513	216.36053	-952.57153	308.55087	63.430847	-958.99072	327.18875	47.277473	-1017.4987	163.27759	37.907757	-927.65338	257.96136	732.75513	-1408.8949	284.81943	421.42575	-1421.3256	298.93622	334.53687	-1445.1113	305.56952	73.564796	-1444.4171	325.31549	47.919468	-1380.6996	163.22058	40.669376	-1478.7914	
1175	5.87	329.93915	1317.1194	-1207.1941	181.74704	1252.1608	-1196.9377	347.81909	1230.2966	-1351.8785	202.08847	877.25031	-1078.3953	196.9712	889.7748	-1339.1193	371.2675	940.6345	-1165.413	371.1793	938.2564	-1240.4553	250.83005	558.12347	-991.11096	260.90955	418.84613	-989.06781	293.45886	216.38622	-952.56458	308.70853	63.454559	-958.93707	327.23843	47.273472	-1017.5117	163.28075	37.926384	-927.66107	258.04358	732.72211	-1408.8197	284.91333	421.41171	-1421.2786	299.00159	334.51807	-1445.0867	305.58749	73.55687	-1444.4099	325.29584	47.939312	-1380.6754	163.23489	40.651787	-1478.8021	
1176	5.875	329.99936	1317.0657	-1207.2094	181.82394	1252.1594	-1196.8973	347.90051	1230.3772	-1351.8734	202.05212	877.27942	-1078.3573	197.0287	889.6642	-1339.0739	371.3014	940.5687	-1165.5414	371.5296	939.3153	-1240.4381	250.79587	558.16248	-991.09045	260.88284	418.88962	-989.05573	293.41037	216.41722	-952.52136	308.94156	63.50185	-958.97662	327.27637	47.236107	-1017.5062	163.28548	37.963249	-927.71405	258.13251	732.65106	-1408.76	285.00009	421.34985	-1421.2262	299.03238	334.46191	-1445.067	305.591	73.46756	-1444.4476	325.25702	47.82682	-1380.8392	163.22993	40.584415	-1478.803	
1177	5.88	330.04343	1317.0637	-1207.197	181.86798	1252.1406	-1196.8171	347.99817	1230.4349	-1351.8674	202.04819	877.3255	-1078.2935	197.0509	889.6077	-1339.0358	371.3227	940.5563	-1165.6589	371.3169	938.5472	-1240.4298	250.7861	558.17029	-991.06824	260.85712	418.88773	-989.0506	293.37183	216.48166	-952.47131	308.93872	63.492321	-958.97626	327.2742	47.151897	-1017.4668	163.2706	37.943203	-927.70569	258.22034	732.54022	-1408.6953	285.04849	421.28729	-1421.1904	299.04092	334.42636	-1445.0374	305.52908	73.417755	-1444.4396	325.25256	47.812305	-1380.9613	163.19879	40.552761	-1478.8438	
1178	5.885	330.07397	1317.0443	-1207.1825	181.89636	1252.1438	-1196.7516	347.92957	1230.3944	-1351.8208	202.02446	877.29431	-1078.2626	197.0785	889.6133	-1339.0219	371.2827	940.5538	-1165.5525	371.2946	938.4877	-1240.3776	250.76634	558.13116	-991.04596	260.84634	418.87827	-989.06519	293.35742	216.43919	-952.50348	308.75327	63.485214	-958.92877	327.23328	47.166634	-1017.4473	163.23499	37.974552	-927.68762	258.26511	732.54724	-1408.6611	285.10297	421.29562	-1421.135	299.03519	334.46939	-1445.0149	305.44992	73.45993	-1444.451	325.19299	47.844151	-1380.871	163.14029	40.574486	-1478.8501	
1179	5.89	330.08228	1317.0455	-1207.1532	181.944	1252.1434	-1196.6769	347.862	1230.3258	-1351.7968	202.01761	877.2486	-1078.2416	197.0842	889.6803	-1339.0116	371.2634	940.5926	-1165.3987	371.2214	938.3531	-1240.3126	250.80621	558.09241	-991.04712	260.84445	418.82605	-989.0683	293.36771	216.39984	-952.48029	308.52859	63.427353	-958.96283	327.23242	47.211956	-1017.4519	163.23526	37.95771	-927.67035	258.33575	732.59027	-1408.6304	285.12643	421.35101	-1421.0891	299.04446	334.53448	-1444.9745	305.39462	73.53479	-1444.4644	325.17764	47.919281	-1380.736	163.09933	40.637146	-1478.8678	
